# xmcd
#
# Track frame offsets:
#	150
#	21572
#	41613
#	60020
#	81250
#	107832
#	135083
#	167457
#	191762
#	223740
#	245845
#	267505
#
# Disc length: 3771 seconds
#
# Revision: 0
# Processed by: cddbd v1.5.2PL0 Copyright (c) Steve Scherf et al.
# Submitted via: EZCDAudioConverter 1.3.4.1
#
DISCID=a60eb90c
DTITLE=Robert Plant - Dreamland
DYEAR=2002
DGENRE=
TTITLE0=Funny In My Mind (I Believe I'm Fixin' To Die)
TTITLE1=Morning Dew
TTITLE2=One More Cup Of Coffee
TTITLE3=Last Time I Saw Her
TTITLE4=Song To The Siren
TTITLE5=Win My Train Fare Home (If I Ever Get Lucky)
TTITLE6=Darkness, Darkness
TTITLE7=Red Dress
TTITLE8=Hey Joe
TTITLE9=Skip's Song
TTITLE10=Dirt In A Hole
TTITLE11=Last Time I Saw Her [Remix]
EXTD=
EXTT0=
EXTT1=
EXTT2=
EXTT3=
EXTT4=
EXTT5=
EXTT6=
EXTT7=
EXTT8=
EXTT9=
EXTT10=
EXTT11=
PLAYORDER=
